<svg xmlns="http://www.w3.org/2000/svg" width="380" height="650" viewBox="0 0 380 650">
  <defs>
    <linearGradient id="bg3" x1="0%" y1="0%" x2="100%" y2="100%">
      <stop offset="0%" stop-color="#0a0a1a"/>
      <stop offset="100%" stop-color="#0d0d25"/>
    </linearGradient>
  </defs>
  <rect width="380" height="650" fill="url(#bg3)" rx="24"/>
  <!-- Header -->
  <rect x="0" y="0" width="380" height="70" fill="#111130" rx="24"/>
  <rect x="0" y="40" width="380" height="30" fill="#111130"/>
  <text x="190" y="45" fill="#fff" font-family="sans-serif" font-size="18" font-weight="bold" text-anchor="middle">🤖 AI-ассистент</text>
  <text x="190" y="62" fill="#888" font-family="sans-serif" font-size="12" text-anchor="middle">DeepSeek + голосовой ввод</text>
  <!-- Feed -->
  <rect x="20" y="90" width="240" height="50" rx="12" fill="#7b2ff722"/>
  <text x="30" y="112" fill="#00d4ff" font-family="sans-serif" font-size="12" font-weight="bold">🎤 Вы</text>
  <text x="30" y="130" fill="#ccc" font-family="sans-serif" font-size="11">"Какая прибыль по 27D2?"</text>
  <rect x="120" y="155" width="240" height="65" rx="12" fill="#1a1a3e"/>
  <text x="130" y="178" fill="#7b2ff7" font-family="sans-serif" font-size="12" font-weight="bold">🤖 Ассистент</text>
  <text x="130" y="198" fill="#ddd" font-family="sans-serif" font-size="11">По товару 27D2 (Спорт. браслет):</text>
  <text x="130" y="212" fill="#4a4" font-family="sans-serif" font-size="11">Прибыль = 82 495 ₽ (39.2%)</text>
  <!-- Separator -->
  <text x="190" y="250" fill="#555" font-family="sans-serif" font-size="12" text-anchor="middle">───────</text>
  <rect x="20" y="265" width="240" height="50" rx="12" fill="#7b2ff722"/>
  <text x="30" y="287" fill="#00d4ff" font-family="sans-serif" font-size="12" font-weight="bold">🎤 Вы</text>
  <text x="30" y="305" fill="#ccc" font-family="sans-serif" font-size="11">"Общие продажи за месяц"</text>
  <rect x="120" y="330" width="240" height="160" rx="12" fill="#1a1a3e"/>
  <text x="130" y="353" fill="#7b2ff7" font-family="sans-serif" font-size="12" font-weight="bold">🤖 Ассистент</text>
  <text x="130" y="373" fill="#ddd" font-family="sans-serif" font-size="11">📊 Сводка за март 2026:</text>
  <text x="130" y="393" fill="#aaa" font-family="sans-serif" font-size="11">Товаров продано: 2 847</text>
  <text x="130" y="413" fill="#aaa" font-family="sans-serif" font-size="11">Выручка: 587 300 ₽</text>
  <text x="130" y="433" fill="#aaa" font-family="sans-serif" font-size="11">Комиссия WB: -88 095 ₽</text>
  <text x="130" y="453" fill="#aaa" font-family="sans-serif" font-size="11">Логистика: -32 500 ₽</text>
  <text x="130" y="478" fill="#4a4" font-family="sans-serif" font-size="11" font-weight="bold">Чистая прибыль: 198 450 ₽</text>
  <!-- Voice input -->
  <rect x="20" y="510" width="340" height="55" rx="25" fill="#111130" stroke="#7b2ff7" stroke-width="1"/>
  <text x="50" y="543" fill="#888" font-family="sans-serif" font-size="13">🎤 Нажми и говори...</text>
  <circle cx="330" cy="537" r="18" fill="#7b2ff7"/>
  <text x="330" y="542" fill="#fff" font-family="sans-serif" font-size="14" text-anchor="middle">🎤</text>
  <rect x="20" y="580" width="340" height="40" rx="10" fill="#111125"/>
  <text x="35" y="605" fill="#aaa" font-family="sans-serif" font-size="11">💡 Голосовой запрос → AI анализ → ответ за 3 секунды</text>
</svg>
